<svg width="380" height="327" fill="none" xmlns="http://www.w3.org/2000/svg"><path fill-rule="evenodd" clip-rule="evenodd" d="M362.733 40.331h6.6c5.5 0 9.9 4.4 10 9.9 0 5.5-4.4 9.9-9.9 9.9h-6.6v3.6l-.6 149.7c-2.5 11.7-13 20.6-25.5 20.6h-293.3c-12.5 0-23-8.9-25.5-20.6l-.5-149.7v-3.8h-6.8c-5.5 0-9.9-4.4-9.9-9.9s4.4-9.9 9.9-9.9h6.8v-4.7c0-14.3 11.7-26 26-26h10.2v-9.4h46.6v9.4h15.2v-.8c0-4.7 3.8-8.6 8.6-8.6h213.1c14.2 0 25.7 11.5 25.7 25.7v11.9h-.1v2.7zm-357.3 9.7c0 3 2.4 5.5 5.5 5.5 3 0 5.5-2.5 5.5-5.5s-2.5-5.5-5.5-5.5-5.5 2.4-5.5 5.5zm340.4-15.8c0 4.4-3.5 7.9-7.9 7.9h-32.6c-4.4 0-7.9-3.5-7.9-7.9v-11.1c0-4.4 3.5-7.9 7.9-7.9h32.6c4.4 0 7.9 3.5 7.9 7.9v11.1zm17.6 16c0 3 2.4 5.5 5.5 5.5s5.6-2.5 5.5-5.5c0-3-2.4-5.5-5.5-5.5-3 0-5.5 2.4-5.5 5.5z" fill="#ECF2F9"/><path clip-rule="evenodd" d="M265.733 324.432h-190.1c-6.5 0-11.7-5.3-11.7-11.7v-220.7c0-6.5 5.3-11.7 11.7-11.7h190.1c6.5 0 11.7 5.3 11.7 11.7v220.7c.1 6.4-5.2 11.7-11.7 11.7z" stroke="#2EE5C0" stroke-width="4" stroke-linecap="round" stroke-linejoin="round"/><path clip-rule="evenodd" d="M77.933 95.43h185.4v185.4h-185.4V95.43z" stroke="#2EE5C0" stroke-width="4" stroke-linecap="round" stroke-linejoin="round"/><path clip-rule="evenodd" d="M170.633 198.332c6.352 0 11.5-5.149 11.5-11.5s-5.148-11.5-11.5-11.5c-6.351 0-11.5 5.149-11.5 11.5s5.149 11.5 11.5 11.5zm59.7 54.601c-5.6 5.5-14.8 4.9-19.7-1.2l-26.5-33.5c-2.9-3.6-2.5-8.9.8-12.1 3.3-3.3 8.6-3.5 12.2-.4l32.5 27.6c6 5 6.3 14.1.7 19.6z" stroke="#2EE5C0" stroke-width="4" stroke-linecap="round" stroke-linejoin="round"/><path d="M227.533 231.429c9.5-12.1 15.3-27.3 15.4-43.9.4-39.9-31.6-72.7-71.6-73.1-39.9-.4-72.7 31.6-73.1 71.6-.4 39.9 31.6 72.7 71.6 73.1 14 .1 27.2-3.7 38.3-10.5" stroke="#2EE5C0" stroke-width="4" stroke-linecap="round" stroke-linejoin="round"/><path d="M323.633 264.13l-158.7 3c-5.6.1-10.2-5.1-10.2-11.4V38.13c0-6.3 4.6-11.3 10.2-11l158.7 7.7c5.2.3 9.4 5.4 9.4 11.5v206.8c0 5.9-4.2 10.9-9.4 11z" fill="#007CE9"/><path d="M320.833 223.63l-152.9.3c-1.4 0-2.6-1.3-2.6-2.9V41.73c0-1.6 1.2-2.8 2.6-2.8l152.9 7c1.3.1 2.4 1.4 2.4 2.9v172.1c0 1.5-1.1 2.7-2.4 2.7z" fill="#00236B"/><path fill-rule="evenodd" clip-rule="evenodd" d="M291.933 62.129c2.2.1 4 2.3 4 4.9 0 2.6-1.8 4.7-4 4.5-2.3-.1-4.1-2.3-4.1-4.9 0-2.6 1.9-4.6 4.1-4.5zm13.6.7c2.2 0 4 2.2 4 4.8 0 2.6-1.8 4.6-4 4.5-2.2 0-4-2.2-4-4.8 0-2.6 1.8-4.6 4-4.5z" fill="#007CE9"/><path fill-rule="evenodd" clip-rule="evenodd" d="M264.533 61.128c2.3.1 4.1 2.3 4.1 4.9 0 2.6-1.8 4.6-4.1 4.6-2.3-.1-4.1-2.3-4.1-4.9 0-2.6 1.8-4.7 4.1-4.6zm13.7.5c2.3.1 4.1 2.3 4.1 4.9 0 2.6-1.8 4.7-4.1 4.6-2.3-.1-4.1-2.3-4.1-4.9 0-2.7 1.8-4.7 4.1-4.6z" fill="#00E6C5"/><path d="M309.533 110.53c0-2.6-1.8-4.7-4-4.8-2.2-.1-4 2-4 4.6 0 2.6 1.8 4.7 4 4.8 2.2 0 4-2 4-4.6z" fill="#007CE9"/><path fill-rule="evenodd" clip-rule="evenodd" d="M264.533 104.429c2.3.1 4.1 2.3 4.1 4.9 0 2.7-1.8 4.7-4.1 4.6-2.3-.1-4.1-2.3-4.1-4.9 0-2.6 1.8-4.7 4.1-4.6zm17.8 5.3c0-2.6-1.8-4.8-4.1-4.8-2.3-.1-4.1 2-4.1 4.6 0 2.6 1.8 4.8 4.1 4.8 2.3.1 4.1-2 4.1-4.6zm13.6.399c0-2.6-1.8-4.8-4-4.8-2.2-.1-4.1 2-4.1 4.6 0 2.6 1.8 4.8 4.1 4.8 2.2.1 4-2 4-4.6z" fill="#00E6C5"/><path fill-rule="evenodd" clip-rule="evenodd" d="M278.233 148.23c2.3 0 4.1 2.2 4.1 4.8 0 2.6-1.8 4.7-4.1 4.7s-4.1-2.2-4.1-4.8c0-2.7 1.8-4.7 4.1-4.7zm17.7 5c0-2.6-1.8-4.7-4-4.8-2.2 0-4.1 2-4.1 4.6 0 2.6 1.8 4.7 4.1 4.8 2.2.1 4-2 4-4.6zm13.6.199c0-2.6-1.8-4.7-4-4.8-2.2 0-4 2-4 4.6 0 2.6 1.8 4.7 4 4.8 2.2.1 4-2 4-4.6z" fill="#007CE9"/><path fill-rule="evenodd" clip-rule="evenodd" d="M268.633 152.73c0-2.6-1.8-4.8-4.1-4.8s-4.1 2-4.1 4.7 1.8 4.8 4.1 4.8 4.1-2.1 4.1-4.7zm40.9 43.6c0-2.6-1.8-4.7-4-4.7s-4 2.1-4 4.7 1.8 4.7 4 4.7 4-2.1 4-4.7zm-17.6-4.7c2.2 0 4 2.1 4 4.7s-1.8 4.7-4 4.7c-2.3 0-4.1-2.1-4.1-4.7s1.9-4.7 4.1-4.7zm-9.6 4.601c0-2.6-1.8-4.7-4.1-4.7s-4.1 2.1-4.1 4.7 1.8 4.7 4.1 4.7 4.1-2.1 4.1-4.7zm-17.8-4.903c2.3.1 4.1 2.2 4.1 4.8 0 2.6-1.8 4.7-4.1 4.7s-4.1-2.2-4.1-4.8c0-2.6 1.8-4.7 4.1-4.7z" fill="#00E6C5"/><path fill-rule="evenodd" clip-rule="evenodd" d="M182.833 57.73c2.4.1 4.3 2.3 4.3 5s-2 4.8-4.3 4.7c-2.4-.1-4.3-2.3-4.3-5s1.9-4.8 4.3-4.7zm0 44.3c2.4.1 4.3 2.3 4.3 5s-2 4.8-4.3 4.7c-2.4-.1-4.3-2.3-4.3-5s1.9-4.8 4.3-4.7z" fill="#FBC900"/><path d="M187.133 151.33c0-2.7-1.9-4.9-4.3-4.9s-4.3 2.1-4.3 4.8c0 2.7 1.9 4.9 4.3 4.9 2.3 0 4.3-2.1 4.3-4.8z" fill="#FF3352"/><path d="M187.133 195.728c0-2.7-1.9-4.9-4.3-4.9s-4.3 2.1-4.3 4.8c0 2.7 1.9 4.9 4.3 4.9 2.3 0 4.3-2.2 4.3-4.8z" fill="#FBC900"/></svg>